<svg width="161" height="224" viewBox="0 0 161 224" fill="none" xmlns="http://www.w3.org/2000/svg">
<path d="M158.356 90.5351C160.62 98.5844 160.827 107.127 158.784 115.235C147.072 161.701 135.374 180.195 91.4823 186.97C87.3865 187.602 83.1726 187.602 79.0862 186.911C38.8592 180.111 20.4829 159.166 3.4713 118.602C-1.77104 106.101 -0.950215 91.9087 5.08577 79.7715C23.2825 43.1816 40.6708 14.7337 74.755 2.08259C81.5536 -0.440836 89.0492 -0.679885 95.9922 1.4135C134.068 12.8938 145.111 43.4356 158.356 90.5351Z" fill="#54B432"/>
<path d="M81.0554 82.8422C81.0554 80.3538 82.8468 78.3366 85.0566 78.3366C87.2664 78.3366 89.0578 80.3538 89.0578 82.8422V218.831C89.0578 221.319 87.2664 223.337 85.0566 223.337C82.8468 223.337 81.0554 221.319 81.0554 218.831V82.8422Z" fill="black"/>
<path d="M114.235 130.675C115.798 128.916 118.331 128.916 119.894 130.675C121.456 132.435 121.456 135.287 119.894 137.047L89.5432 171.224C87.9807 172.983 85.4472 172.983 83.8847 171.224C82.3221 169.464 82.3221 166.612 83.8847 164.852L114.235 130.675Z" fill="black"/>
<path d="M114.235 130.675C115.798 128.916 118.331 128.916 119.894 130.675C121.456 132.435 121.456 135.287 119.894 137.047L89.5432 171.224C87.9807 172.983 85.4472 172.983 83.8847 171.224C82.3221 169.464 82.3221 166.612 83.8847 164.852L114.235 130.675Z" fill="black"/>
<path d="M48.2375 101.002C46.675 99.2423 46.675 96.3895 48.2375 94.6299C49.8001 92.8703 52.3335 92.8703 53.8961 94.6299L84.2466 128.807C85.8091 130.566 85.8091 133.419 84.2466 135.179C82.684 136.938 80.1506 136.938 78.588 135.179L48.2375 101.002Z" fill="black"/>
</svg>
