<svg width="161" height="218" viewBox="0 0 161 218" fill="none" xmlns="http://www.w3.org/2000/svg">
<path d="M158.422 97.2382C160.685 89.1889 160.893 80.646 158.849 72.5381C147.138 26.0727 135.44 7.57847 91.5479 0.80365C87.4521 0.17145 83.2382 0.17151 79.1518 0.862289C38.9248 7.66249 20.5485 28.6072 3.53692 69.1715C-1.70542 81.672 -0.884602 95.8646 5.15139 108.002C23.3481 144.592 40.7364 173.04 74.8206 185.691C81.6192 188.214 89.1148 188.453 96.0578 186.36C134.134 174.879 145.177 144.338 158.422 97.2382Z" fill="#B49F32"/>
<path d="M88.0759 76.8422C88.0759 74.3538 86.2845 72.3366 84.0746 72.3366C81.8648 72.3366 80.0734 74.3538 80.0734 76.8422V212.831C80.0734 215.319 81.8648 217.337 84.0746 217.337C86.2845 217.337 88.0759 215.319 88.0759 212.831V76.8422Z" fill="black"/>
<path d="M54.8961 124.675C53.3335 122.916 50.8001 122.916 49.2375 124.675C47.675 126.435 47.675 129.287 49.2375 131.047L79.588 165.224C81.1506 166.983 83.684 166.983 85.2466 165.224C86.8091 163.464 86.8091 160.612 85.2466 158.852L54.8961 124.675Z" fill="black"/>
<path d="M54.8961 124.675C53.3335 122.916 50.8001 122.916 49.2375 124.675C47.675 126.435 47.675 129.287 49.2375 131.047L79.588 165.224C81.1506 166.983 83.684 166.983 85.2466 165.224C86.8091 163.464 86.8091 160.612 85.2466 158.852L54.8961 124.675Z" fill="black"/>
<path d="M120.894 95.0019C122.456 93.2423 122.456 90.3895 120.894 88.6299C119.331 86.8703 116.798 86.8703 115.235 88.6299L84.8847 122.807C83.3221 124.566 83.3221 127.419 84.8847 129.179C86.4472 130.938 88.9807 130.938 90.5432 129.179L120.894 95.0019Z" fill="black"/>
</svg>
