<svg width="32" height="32" viewBox="0 0 32 32" fill="none" xmlns="http://www.w3.org/2000/svg">
<path d="M28.5806 3.44263C27.9137 2.75812 26.9266 2.50311 26.0062 2.77154L4.54408 9.01268C3.57302 9.28247 2.88474 10.0569 2.69932 11.0407C2.50991 12.042 3.17152 13.313 4.03587 13.8445L10.7466 17.9691C11.4349 18.3919 12.3233 18.2859 12.8928 17.7113L20.5773 9.97906C20.9641 9.5764 21.6043 9.5764 21.9913 9.97906C22.3781 10.3683 22.3781 10.9991 21.9913 11.4018L14.2934 19.1355C13.7225 19.7085 13.6158 20.6011 14.0359 21.2936L18.1363 28.0717C18.6165 28.8769 19.4435 29.3333 20.3505 29.3333C20.4573 29.3333 20.5773 29.3333 20.6841 29.3199C21.7245 29.1857 22.5514 28.4744 22.8582 27.4677L29.2209 6.03304C29.501 5.12036 29.2475 4.12715 28.5806 3.44263Z" fill="white"/>
</svg>
