<svg width="28" height="26" viewBox="0 0 28 26" fill="none" xmlns="http://www.w3.org/2000/svg">
<path fill-rule="evenodd" clip-rule="evenodd" d="M10.6667 13.7383C14.3395 13.7383 17.2835 10.7561 17.2835 7.03579C17.2835 3.31551 14.3395 0.333334 10.6667 0.333334C6.99399 0.333334 4.04991 3.31551 4.04991 7.03579C4.04991 10.7561 6.99399 13.7383 10.6667 13.7383ZM10.6667 17.0203C5.27237 17.0203 0.666748 17.8828 0.666748 21.3285C0.666748 24.7731 5.24435 25.6667 10.6667 25.6667C16.0598 25.6667 20.6667 24.8041 20.6667 21.3583C20.6667 17.9125 16.0891 17.0203 10.6667 17.0203ZM24.5306 9.78381H26.1347C26.795 9.78381 27.3334 10.3297 27.3334 10.9993C27.3334 11.6688 26.795 12.2148 26.1347 12.2148H24.5306V13.7845C24.5306 14.4541 23.9937 15 23.3321 15C22.6718 15 22.1334 14.4541 22.1334 13.7845V12.2148H20.5321C19.8703 12.2148 19.3334 11.6688 19.3334 10.9993C19.3334 10.3297 19.8703 9.78381 20.5321 9.78381H22.1334V8.21549C22.1334 7.54593 22.6718 7 23.3321 7C23.9937 7 24.5306 7.54593 24.5306 8.21549V9.78381Z" fill="white"/>
</svg>
